# xmcd CD database file
#
# Track frame offsets:
#	151
#	13243
#	24717
#	36373
#	52777
#
# Disc length: 848 seconds
#
# Revision: 0
# Processed by: cddbd v1.5.2PL0 Copyright (c) Steve Scherf et al.
# Submitted via: CDex 1.70beta2
#
DISCID=38034e05
DTITLE=Ronnie Beard - Sampler
DYEAR=2000
DGENRE=Country
TTITLE0=Haven't Got A Country Care
TTITLE1=Groove It
TTITLE2=You'll Never Find Someone Who Loves You Like I Do
TTITLE3=Talk To Me
TTITLE4=The British Are Comin'
EXTD=YEAR: 2000
EXTT0=
EXTT1=
EXTT2=
EXTT3=
EXTT4=
PLAYORDER=
